<svg viewBox="0 0 67 24" fill="none" xmlns="http://www.w3.org/2000/svg" class="my-12 h-6"><g clip-path="url(#ted-white-logo_svg__clip0_1694_77589)"><path fill-rule="evenodd" clip-rule="evenodd" d="M20.966 0v6.151h-6.763V24h-7.44V6.151H0V0h20.966zm21.483 0v6.141l-12.917.01v2.946H42.45v5.73l-12.918-.009v3.03H42.45V24H22.091V0H42.45zm13.447 0c8.048 0 10.888 5.916 10.888 11.966C66.784 19.328 62.862 24 54.441 24H43.688V0h12.208zm-2.401 6.151h-2.367V17.85h2.908c4.633 0 5.31-3.731 5.31-5.983 0-1.513-.474-5.715-5.851-5.715z" fill="#fff"></path></g><defs><clipPath id="ted-white-logo_svg__clip0_1694_77589"><path fill="#fff" d="M0 0h67v24H0z"></path></clipPath></defs></svg>