<svg viewBox="0 0 24 24" fill="none" xmlns="http://www.w3.org/2000/svg" class="mr-4 h-6"><g clip-path="url(#email_svg__clip0_1694_78433)" fill-rule="evenodd" clip-rule="evenodd" fill="#B5B5B5"><path d="M4 4.75c-.686 0-1.25.564-1.25 1.25v12c0 .686.564 1.25 1.25 1.25h16c.686 0 1.25-.564 1.25-1.25V6c0-.686-.564-1.25-1.25-1.25H4zM1.25 6A2.756 2.756 0 014 3.25h16A2.756 2.756 0 0122.75 6v12A2.756 2.756 0 0120 20.75H4A2.756 2.756 0 011.25 18V6z"></path><path d="M1.386 5.57a.75.75 0 011.044-.184L12 12.085l9.57-6.7a.75.75 0 11.86 1.23l-10 7a.75.75 0 01-.86 0l-10-7a.75.75 0 01-.184-1.045z"></path></g><defs><clipPath id="email_svg__clip0_1694_78433"><path fill="#fff" d="M0 0h24v24H0z"></path></clipPath></defs></svg>